<svg width="16" height="16" viewBox="0 0 16 16" fill="none" xmlns="http://www.w3.org/2000/svg">
<path d="M8.00004 1.16666C8.55347 1.16663 9.08593 1.37837 9.48819 1.75845C9.89046 2.13852 10.132 2.65813 10.1634 3.21066L10.1667 3.33333H13.6667C13.7934 3.33337 13.9153 3.38149 14.0079 3.46798C14.1005 3.55446 14.1568 3.67286 14.1654 3.79925C14.174 3.92564 14.1344 4.05059 14.0544 4.14886C13.9745 4.24713 13.8602 4.3114 13.7347 4.32866L13.6667 4.33333H13.136L12.2827 13.0133C12.24 13.4461 12.0448 13.8495 11.732 14.1516C11.4193 14.4538 11.0093 14.6349 10.5754 14.6627L10.458 14.6667H5.54204C5.10701 14.6666 4.68617 14.5119 4.35471 14.2302C4.02325 13.9484 3.80279 13.558 3.73271 13.1287L3.71737 13.0127L2.86337 4.33333H2.33337C2.21255 4.33333 2.09581 4.28957 2.00475 4.21015C1.91369 4.13074 1.85447 4.02103 1.83804 3.90133L1.83337 3.83333C1.83338 3.71251 1.87714 3.59577 1.95655 3.50471C2.03597 3.41365 2.14567 3.35443 2.26537 3.338L2.33337 3.33333H5.83337C5.83337 2.7587 6.06165 2.20759 6.46798 1.80127C6.87431 1.39494 7.42541 1.16666 8.00004 1.16666ZM12.1314 4.33333H3.86804L4.71271 12.9147C4.73141 13.1061 4.81579 13.2852 4.95152 13.4216C5.08726 13.5579 5.26598 13.6431 5.45737 13.6627L5.54204 13.6667H10.458C10.858 13.6667 11.1974 13.3833 11.2747 12.9987L11.288 12.9147L12.1307 4.33333H12.1314ZM9.16671 6.16666C9.28753 6.16667 9.40427 6.21043 9.49533 6.28984C9.58639 6.36926 9.64561 6.47896 9.66204 6.59866L9.66671 6.66666V11.3333C9.66667 11.46 9.61854 11.582 9.53206 11.6745C9.44557 11.7671 9.32718 11.8234 9.20079 11.832C9.0744 11.8406 8.94945 11.801 8.85117 11.721C8.7529 11.6411 8.68864 11.5268 8.67137 11.4013L8.66671 11.3333V6.66666C8.66671 6.53406 8.71939 6.40688 8.81315 6.31311C8.90692 6.21934 9.0341 6.16666 9.16671 6.16666ZM6.83337 6.16666C6.9542 6.16667 7.07094 6.21043 7.16199 6.28984C7.25305 6.36926 7.31228 6.47896 7.32871 6.59866L7.33337 6.66666V11.3333C7.33334 11.46 7.28521 11.582 7.19873 11.6745C7.11224 11.7671 6.99384 11.8234 6.86745 11.832C6.74107 11.8406 6.61611 11.801 6.51784 11.721C6.41957 11.6411 6.35531 11.5268 6.33804 11.4013L6.33337 11.3333V6.66666C6.33337 6.53406 6.38605 6.40688 6.47982 6.31311C6.57359 6.21934 6.70077 6.16666 6.83337 6.16666ZM8.00004 2.16666C7.70725 2.16667 7.42516 2.27678 7.20978 2.47512C6.9944 2.67346 6.86147 2.94553 6.83737 3.23733L6.83337 3.33333H9.16671C9.16671 3.02391 9.04379 2.72717 8.825 2.50837C8.60621 2.28958 8.30946 2.16666 8.00004 2.16666Z" fill="#828282"/>
</svg>
