<svg width="30" height="30" viewBox="0 0 30 30" fill="none" xmlns="http://www.w3.org/2000/svg">
<path d="M0.49284 27.1413L6.15768 21.4931C4.32996 19.1646 3.33824 16.2892 3.34192 13.329C3.34192 10.6928 4.12366 8.11578 5.58827 5.92383C7.05288 3.73188 9.13459 2.02346 11.5702 1.01462C14.0057 0.00577522 16.6857 -0.258184 19.2713 0.25612C21.8569 0.770423 24.2319 2.03989 26.096 3.90399C27.9601 5.76809 29.2296 8.1431 29.7439 10.7287C30.2582 13.3143 29.9942 15.9943 28.9854 18.4298C27.9765 20.8654 26.2681 22.9471 24.0762 24.4117C21.8842 25.8763 19.3072 26.6581 16.671 26.6581C13.7108 26.6618 10.8354 25.67 8.50692 23.8423L2.85874 29.5072C2.70385 29.6633 2.51958 29.7873 2.31655 29.8719C2.11351 29.9565 1.89574 30 1.67579 30C1.45584 30 1.23807 29.9565 1.03504 29.8719C0.832003 29.7873 0.647728 29.6633 0.49284 29.5072C0.336676 29.3523 0.212723 29.168 0.128136 28.965C0.0435486 28.7619 0 28.5442 0 28.3242C0 28.1043 0.0435486 27.8865 0.128136 27.6835C0.212723 27.4804 0.336676 27.2961 0.49284 27.1413ZM26.6677 13.329C26.6677 11.3519 26.0814 9.41909 24.983 7.77513C23.8845 6.13117 22.3232 4.84986 20.4966 4.09322C18.6699 3.33659 16.6599 3.13862 14.7207 3.52435C12.7815 3.91008 11.0002 4.86218 9.60217 6.26025C8.20409 7.65833 7.25199 9.43958 6.86626 11.3788C6.48054 13.318 6.6785 15.328 7.43514 17.1546C8.19177 18.9813 9.47308 20.5426 11.117 21.6411C12.761 22.7395 14.6938 23.3258 16.671 23.3258C19.3223 23.3258 21.865 22.2726 23.7397 20.3978C25.6145 18.5231 26.6677 15.9804 26.6677 13.329Z" fill="#007BC1"/>
</svg>
